<svg viewBox="0 0 760 200" xmlns="http://www.w3.org/2000/svg" font-family="-apple-system, BlinkMacSystemFont, 'Segoe UI', sans-serif">
  <rect width="760" height="200" fill="#0d0d1a" rx="12"/>

  <!-- Step boxes -->
  <!-- 1 -->
  <rect x="14" y="30" width="148" height="140" rx="8" fill="#1a1f3e" stroke="#3b5bdb50" stroke-width="1.5"/>
  <circle cx="38" cy="50" r="10" fill="#3b5bdb40"/>
  <text x="38" y="55" text-anchor="middle" font-size="11" font-weight="700" fill="#748ffc">1</text>
  <text x="88" y="54" text-anchor="middle" font-size="11" font-weight="600" fill="#d9d9d9">Dev opens chat</text>
  <text x="88" y="72" text-anchor="middle" font-size="10" fill="#9ca3af">on any repo</text>
  <rect x="24" y="88" width="128" height="70" rx="5" fill="#0d1020"/>
  <text x="38" y="104" font-size="9" fill="#748ffc" font-family="monospace">$ claude</text>
  <text x="38" y="118" font-size="9" fill="#9ca3af" font-family="monospace">cwd: api-payments/</text>
  <text x="38" y="132" font-size="9" fill="#51cf66" font-family="monospace">✓ MCP connected</text>
  <text x="38" y="148" font-size="9" fill="#51cf66" font-family="monospace">✓ Context loaded</text>

  <text x="172" y="103" text-anchor="middle" font-size="18" fill="#3b5bdb">→</text>

  <!-- 2 -->
  <rect x="184" y="30" width="188" height="140" rx="8" fill="#112211" stroke="#2f9e4450" stroke-width="1.5"/>
  <circle cx="208" cy="50" r="10" fill="#2f9e4440"/>
  <text x="208" y="55" text-anchor="middle" font-size="11" font-weight="700" fill="#51cf66">2</text>
  <text x="278" y="54" text-anchor="middle" font-size="11" font-weight="600" fill="#d9d9d9">get_context auto-runs</text>
  <text x="278" y="72" text-anchor="middle" font-size="10" fill="#9ca3af">~800 tokens, not ~8000</text>
  <rect x="194" y="88" width="168" height="70" rx="5" fill="#0a180a"/>
  <text x="204" y="104" font-size="9" fill="#6fcf97" font-family="monospace"># api-payments — context</text>
  <text x="204" y="118" font-size="9" fill="#9ca3af" font-family="monospace">Stack: Go, PG, gRPC</text>
  <text x="204" y="130" font-size="9" fill="#9ca3af" font-family="monospace">Owner: time-backend</text>
  <text x="204" y="142" font-size="9" fill="#6fcf97" font-family="monospace">✓ gRPC (latência) 07-01</text>
  <text x="204" y="154" font-size="9" fill="#ffa94d" font-family="monospace">! retry msgs (aberto)</text>

  <text x="382" y="103" text-anchor="middle" font-size="18" fill="#3b5bdb">→</text>

  <!-- 3 -->
  <rect x="394" y="30" width="168" height="140" rx="8" fill="#1a1a30" stroke="#748ffc50" stroke-width="1.5"/>
  <circle cx="418" cy="50" r="10" fill="#3b5bdb40"/>
  <text x="418" y="55" text-anchor="middle" font-size="11" font-weight="700" fill="#748ffc">3</text>
  <text x="478" y="54" text-anchor="middle" font-size="11" font-weight="600" fill="#d9d9d9">AI answers instantly</text>
  <text x="478" y="72" text-anchor="middle" font-size="10" fill="#9ca3af">no dev to ping</text>
  <rect x="404" y="88" width="148" height="70" rx="5" fill="#0d0d20"/>
  <text x="414" y="104" font-size="9" fill="#9ca3af" font-family="monospace">You: "por que gRPC?"</text>
  <text x="414" y="122" font-size="9" fill="#d9d9d9" font-family="monospace">AI: Adotamos gRPC</text>
  <text x="414" y="134" font-size="9" fill="#d9d9d9" font-family="monospace">em 2026-07-01 pela</text>
  <text x="414" y="146" font-size="9" fill="#d9d9d9" font-family="monospace">latência: -40% vs</text>
  <text x="414" y="158" font-size="9" fill="#d9d9d9" font-family="monospace">REST. Ver decisão →</text>

  <text x="572" y="103" text-anchor="middle" font-size="18" fill="#3b5bdb">→</text>

  <!-- 4 -->
  <rect x="584" y="30" width="162" height="140" rx="8" fill="#1a1208" stroke="#ffd43b50" stroke-width="1.5"/>
  <circle cx="608" cy="50" r="10" fill="#e6770040"/>
  <text x="608" y="55" text-anchor="middle" font-size="11" font-weight="700" fill="#ffd43b">4</text>
  <text x="665" y="54" text-anchor="middle" font-size="11" font-weight="600" fill="#d9d9d9">Decision logged</text>
  <text x="665" y="72" text-anchor="middle" font-size="10" fill="#9ca3af">knowledge grows</text>
  <rect x="594" y="88" width="142" height="70" rx="5" fill="#100e04"/>
  <text x="604" y="104" font-size="9" fill="#ffd43b" font-family="monospace">log_decision {</text>
  <text x="612" y="116" font-size="9" fill="#9ca3af" font-family="monospace">project: "api-pay"</text>
  <text x="612" y="128" font-size="9" fill="#9ca3af" font-family="monospace">topic: "grpc"</text>
  <text x="612" y="140" font-size="9" fill="#9ca3af" font-family="monospace">decision: "..."</text>
  <text x="604" y="152" font-size="9" fill="#ffd43b" font-family="monospace">} → decisions/</text>
</svg>
