<svg width="80" height="80" viewBox="0 0 80 80" xmlns="http://www.w3.org/2000/svg">
  <defs>
    <linearGradient id="bg" x1="0%" y1="0%" x2="100%" y2="100%">
      <stop offset="0%" style="stop-color:#1a1a2e"/>
      <stop offset="100%" style="stop-color:#16213e"/>
    </linearGradient>
    <linearGradient id="accent" x1="0%" y1="0%" x2="100%" y2="100%">
      <stop offset="0%" style="stop-color:#4f8ef7"/>
      <stop offset="100%" style="stop-color:#7c3aed"/>
    </linearGradient>
  </defs>
  <!-- Background -->
  <rect width="80" height="80" rx="18" fill="url(#bg)"/>
  <!-- Hub center -->
  <circle cx="40" cy="40" r="8" fill="url(#accent)" opacity="0.9"/>
  <!-- Spokes -->
  <line x1="40" y1="32" x2="40" y2="18" stroke="#4f8ef7" stroke-width="2.5" stroke-linecap="round"/>
  <line x1="40" y1="48" x2="40" y2="62" stroke="#4f8ef7" stroke-width="2.5" stroke-linecap="round"/>
  <line x1="32" y1="40" x2="18" y2="40" stroke="#4f8ef7" stroke-width="2.5" stroke-linecap="round"/>
  <line x1="48" y1="40" x2="62" y2="40" stroke="#4f8ef7" stroke-width="2.5" stroke-linecap="round"/>
  <line x1="34.3" y1="34.3" x2="24" y2="24" stroke="#7c3aed" stroke-width="2" stroke-linecap="round" opacity="0.7"/>
  <line x1="45.7" y1="45.7" x2="56" y2="56" stroke="#7c3aed" stroke-width="2" stroke-linecap="round" opacity="0.7"/>
  <line x1="45.7" y1="34.3" x2="56" y2="24" stroke="#7c3aed" stroke-width="2" stroke-linecap="round" opacity="0.7"/>
  <line x1="34.3" y1="45.7" x2="24" y2="56" stroke="#7c3aed" stroke-width="2" stroke-linecap="round" opacity="0.7"/>
  <!-- Nodes -->
  <circle cx="40" cy="16" r="4" fill="#4f8ef7"/>
  <circle cx="40" cy="64" r="4" fill="#4f8ef7"/>
  <circle cx="16" cy="40" r="4" fill="#4f8ef7"/>
  <circle cx="64" cy="40" r="4" fill="#4f8ef7"/>
  <circle cx="23" cy="23" r="3" fill="#7c3aed" opacity="0.8"/>
  <circle cx="57" cy="57" r="3" fill="#7c3aed" opacity="0.8"/>
  <circle cx="57" cy="23" r="3" fill="#7c3aed" opacity="0.8"/>
  <circle cx="23" cy="57" r="3" fill="#7c3aed" opacity="0.8"/>
</svg>
